<svg height="301.511345" viewBox="0 0 352 320" width="331.662479" xmlns="http://www.w3.org/2000/svg" xmlns:xlink="http://www.w3.org/1999/xlink"><clipPath id="a"><path d="m0 240h264v-240h-264z"/></clipPath><g clip-path="url(#a)" fill="#085475" transform="matrix(1.3333333 0 0 -1.3333333 0 320)"><path d="m0 0h11.281c.02-.789.051-1.59.102-2.391l.019-.238h6.118l-.02.27c-.16 2.738-.199 5.507-.117 8.23l.008.25h-11.27c.09 3.277.328 6.52.68 9.649.379 3.23.898 6.449 1.57 9.589.66 3.129 1.488 6.301 2.461 9.391.938 3 2.039 6.07 3.277 9.09l10.301-4.61.09.239c.98 2.41 2.07 4.789 3.199 7.039 1.141 2.273 2.391 4.512 3.703 6.66 1.321 2.152 2.739 4.293 4.231 6.34 1.488 2.043 3.097 4.082 4.797 6.062l.172.2-8.77 7.121c2.117 2.48 4.34 4.867 6.59 7.07 2.32 2.269 4.75 4.449 7.23 6.457 2.481 2.023 5.11 3.953 7.797 5.742 2.614 1.75 5.403 3.43 8.262 5l5.121-10.09.219.121c2.289 1.25 4.601 2.411 6.898 3.45 2.313 1.039 4.684 1.988 7.051 2.828 2.371.84 4.813 1.601 7.27 2.242 2.453.641 4.98 1.219 7.531 1.68l.25.039-2.34 11.078c3.199.594 6.422 1.043 9.551 1.344 3.211.296 6.468.457 9.668.457 3.203 0 6.441-.161 9.672-.457 3.121-.301 6.339-.75 9.55-1.344l-2.34-11.067.25-.043c2.547-.468 5.09-1.039 7.528-1.679 2.449-.66 4.89-1.399 7.269-2.239 2.364-.839 4.743-1.8 7.051-2.832 2.301-1.039 4.629-2.199 6.902-3.449l.219-.121 5.121 10.09c2.86-1.566 5.629-3.25 8.258-5 2.692-1.789 5.32-3.727 7.801-5.738 2.48-2.02 4.91-4.2 7.23-6.461 2.25-2.199 4.461-4.578 6.59-7.071l-8.769-7.117.168-.203c1.703-1.976 3.312-4.019 4.8-6.058 1.5-2.059 2.93-4.18 4.231-6.34s2.559-4.391 3.699-6.66c1.141-2.27 2.223-4.629 3.199-7.04l.09-.242 10.301 4.614c1.242-3.032 2.34-6.094 3.281-9.094.969-3.09 1.789-6.258 2.461-9.387.668-3.133 1.188-6.363 1.57-9.59.36-3.14.59-6.383.68-9.652h-11.281l.019-.25c.082-2.738.04-5.508-.109-8.231l-.019-.269h6.121l.019.242c.039.789.078 1.59.098 2.387h11.281v.23c.449 17.711-3.332 35.52-10.91 51.5l-.109.211-10.301-4.597c-3.012 6.25-6.512 11.988-10.699 17.519l8.769 7.117-.141.18c-10.757 14.043-24.859 25.5-40.781 33.141l-.207.101-5.133-10.082c-6.257 2.961-12.57 5.203-19.297 6.863l2.34 11.067-.23.051c-17.16 4.121-35.301 4.121-52.473 0l-.226-.051 2.34-11.067c-6.723-1.64-13.032-3.902-19.301-6.863l-5.129 10.082-.211-.101c-15.922-7.649-30.02-19.098-40.781-33.141l-.141-.18 8.77-7.117c-4.2-5.519-7.7-11.269-10.7-17.519l-10.3 4.597-.11-.211c-7.578-15.988-11.34-33.797-10.91-51.5z" transform="translate(19.0742 121.9897)"/><path d="m0 0-.02-.27h6.129l.008.219c.121 1.809.172 3.649.172 5.461 0 46.91-38.031 85.07-84.781 85.07s-84.778-38.16-84.778-85.07c0-1.82.047-3.64.168-5.461l.02-.219h6.129l-.02.27c-.117 1.789-.179 3.617-.179 5.43 0 5.347.539 10.699 1.59 15.91 1.031 5.058 2.57 10.058 4.589 14.82 1.973 4.68 4.422 9.188 7.25 13.399 2.813 4.179 6.051 8.109 9.61 11.679 3.551 3.571 7.48 6.821 11.64 9.641 4.211 2.851 8.703 5.301 13.36 7.281 4.75 2.02 9.711 3.57 14.773 4.61 10.36 2.128 21.34 2.128 31.707 0 5.043-1.04 10.02-2.582 14.77-4.61 4.66-1.98 9.16-4.43 13.363-7.281 4.168-2.82 8.078-6.07 11.637-9.641 3.551-3.57 6.801-7.5 9.613-11.679 2.84-4.219 5.277-8.731 7.25-13.399 2.008-4.762 3.547-9.75 4.59-14.82 1.058-5.199 1.597-10.539 1.597-15.91.012-1.813-.058-3.641-.187-5.43" transform="translate(210.4766 119.6304)"/><path d="m0 0c0 .73.051 1.391.16 1.941.09.508.223.93.402 1.289.161.321.34.579.559.79.211.199.422.332.68.421.262.09.551.141.859.141.27 0 .539-.043.789-.121.231-.082.453-.199.641-.359.211-.18.39-.391.551-.661.14-.23.261-.5.359-.789.102-.332.18-.672.25-1.062.051-.418.09-.891.09-1.391 0-.758-.047-1.429-.16-2.019-.09-.52-.219-.961-.399-1.321-.16-.328-.34-.589-.558-.8-.211-.2-.422-.329-.68-.43-.262-.09-.551-.137-.852-.137-.308 0-.601.047-.859.137-.262.09-.473.223-.68.422-.222.211-.41.469-.562.769-.18.352-.32.77-.41 1.289-.118.512-.18 1.161-.18 1.891m-.59-4.461c.262-.34.57-.637.91-.879.321-.219.653-.379 1.039-.5.411-.121.852-.18 1.313-.18.449 0 .859.051 1.269.172.379.11.719.258 1.032.477.339.242.648.523.929.871.239.301.45.66.618 1.059.203.461.339.961.429 1.523.113.629.172 1.348.172 2.109 0 .641-.051 1.258-.16 1.821-.09.508-.231.968-.418 1.39-.172.379-.363.727-.613 1.047-.258.34-.571.641-.91.883-.329.219-.649.379-1.047.5-.403.117-.84.18-1.293.18-.45 0-.86-.051-1.27-.172-.39-.11-.719-.27-1.039-.488-.34-.231-.648-.52-.93-.86-.23-.301-.441-.66-.609-1.051-.199-.429-.332-.921-.43-1.472-.109-.598-.16-1.27-.16-1.989 0-.71.051-1.351.16-1.941.09-.539.231-1.008.418-1.457.153-.371.352-.73.59-1.043" transform="translate(152.6641 68.939)"/><path d="m0 0c-.129-.09-.301-.172-.512-.242-.218-.078-.476-.129-.808-.18-.34-.051-.731-.09-1.16-.098v-1.222h3.109v-8.199h1.781v11.531h-1.39c-.079-.27-.18-.52-.301-.75-.11-.203-.219-.371-.348-.512-.109-.129-.242-.238-.371-.328" transform="translate(106.6953 73.1108)"/><path d="m0 0c-.109-.121-.262-.262-.453-.391-.207-.16-.469-.32-.797-.5-.34-.199-.75-.41-1.203-.621-.567-.269-1.098-.547-1.539-.82-.418-.258-.77-.508-1.07-.758-.27-.23-.508-.469-.68-.699-.18-.231-.34-.5-.469-.77-.141-.32-.25-.64-.34-1.011-.09-.41-.14-.84-.16-1.289h8.981v1.449h-7.063c.051.172.121.328.203.48.078.141.168.289.278.418.101.133.222.274.351.383.121.109.301.231.508.379.242.141.523.32.863.5.379.199.809.418 1.289.641.461.218.891.429 1.258.66.352.211.641.41.902.609.239.18.45.379.621.559.168.199.309.41.438.633.121.218.211.457.281.718.059.27.098.559.098.86 0 .379-.047.73-.137 1.058-.09.301-.223.571-.39.813-.172.25-.391.469-.641.668s-.52.351-.82.48c-.321.141-.641.25-1.012.313-.387.078-.817.117-1.277.117-.473 0-.93-.039-1.352-.129-.379-.082-.719-.199-1.027-.371-.313-.16-.594-.359-.844-.559-.227-.211-.449-.461-.598-.75-.179-.308-.308-.64-.41-1.039-.101-.422-.16-.91-.16-1.422h1.781c0 .34.039.661.11.95.05.25.14.472.25.679.097.18.23.352.378.481.161.14.321.281.52.383.199.109.391.179.621.238.231.051.5.078.758.078.25 0 .5-.027.723-.066.21-.043.398-.114.589-.204.168-.078.34-.179.481-.296.14-.122.269-.274.379-.411.109-.14.179-.3.23-.492.051-.179.078-.379.078-.59 0-.168-.019-.339-.058-.5-.039-.16-.09-.3-.172-.449-.078-.129-.188-.281-.297-.41" transform="translate(141.5664 70.0796)"/><path d="m0 0c0-.27-.031-.512-.09-.73-.051-.211-.14-.391-.25-.571-.109-.172-.238-.308-.379-.449-.16-.129-.332-.25-.511-.359-.18-.09-.379-.172-.598-.211-.223-.051-.473-.082-.723-.082s-.5.023-.719.082c-.21.05-.41.121-.589.218-.18.09-.36.223-.5.372-.141.128-.262.289-.36.46-.109.18-.179.368-.23.59-.051.239-.09.489-.09.758 0 .281.019.52.09.762.051.211.129.41.23.59.11.168.219.32.371.461.137.136.309.269.5.359.18.09.379.168.59.219.219.051.469.082.719.082s.5-.024.719-.09c.222-.051.402-.133.601-.242.18-.098.371-.25.508-.41.141-.161.27-.329.383-.5.109-.18.18-.379.23-.59.067-.231.098-.469.098-.719m-3.461-6.492c-.219.07-.418.16-.59.293-.179.129-.328.289-.449.476-.141.211-.25.473-.309.762h-1.781c.059-.449.172-.84.309-1.199.133-.32.312-.582.523-.82.207-.231.43-.411.707-.571.293-.16.602-.289.953-.371.399-.09.848-.141 1.328-.141.5 0 .969.071 1.411.204.418.117.769.297 1.129.539.371.258.71.59.98.968.25.34.469.723.652 1.153.2.469.36.976.457 1.558.121.629.172 1.321.172 2.059 0 .68-.051 1.312-.172 1.891-.097.511-.25.961-.429 1.359-.168.359-.379.68-.61.953-.261.297-.57.547-.91.758-.328.199-.68.34-1.07.449-.418.11-.879.172-1.34.172-.469 0-.918-.051-1.32-.141-.379-.089-.711-.211-1.039-.379-.309-.171-.59-.382-.84-.609-.231-.242-.449-.512-.61-.793-.171-.289-.3-.598-.39-.949-.09-.371-.141-.758-.141-1.18 0-.41.051-.801.141-1.148.09-.332.211-.621.379-.891.16-.262.351-.5.59-.711.23-.219.511-.41.812-.558.289-.161.598-.262.938-.34.359-.082.769-.133 1.191-.133.48 0 .941.07 1.359.18.379.121.711.261.989.48.32.223.57.512.793.84-.09-.59-.211-1.129-.34-1.59-.121-.43-.231-.789-.383-1.09-.117-.269-.258-.508-.41-.679-.16-.2-.34-.371-.539-.5-.2-.129-.391-.219-.61-.289-.23-.071-.48-.11-.75-.11-.269 0-.539.039-.781.098" transform="translate(125.8047 70.9702)"/><path d="m58.246 107.9h2.199v-3.582h-2.199z"/><path d="m54.766 107.9h2.199v-3.582h-2.199z"/><path d="m51.297 107.9h2.199v-3.582h-2.199z"/><path d="m47.805 107.9h2.199v-3.582h-2.199z"/><path d="m44.324 107.9h2.199v-3.582h-2.199z"/><path d="m58.246 102.951h2.199v-3.582h-2.199z"/><path d="m54.766 102.951h2.199v-3.582h-2.199z"/><path d="m51.297 102.951h2.199v-3.582h-2.199z"/><path d="m47.805 102.951h2.199v-3.582h-2.199z"/><path d="m44.324 102.951h2.199v-3.582h-2.199z"/><path d="m58.246 97.998h2.199v-3.578h-2.199z"/><path d="m67.156 106.291h2.199v-3.582h-2.199z"/><path d="m67.156 101.33h2.199v-3.582h-2.199z"/><path d="m67.156 96.388h2.199v-3.578h-2.199z"/><path d="m54.766 97.998h2.199v-3.578h-2.199z"/><path d="m51.297 97.998h2.199v-3.578h-2.199z"/><path d="m47.805 97.998h2.199v-3.578h-2.199z"/><path d="m44.324 97.998h2.199v-3.578h-2.199z"/><path d="m58.246 93.041h2.199v-3.582h-2.199z"/><path d="m54.766 93.041h2.199v-3.582h-2.199z"/><path d="m51.297 93.041h2.199v-3.582h-2.199z"/><path d="m47.805 93.041h2.199v-3.582h-2.199z"/><path d="m44.324 93.041h2.199v-3.582h-2.199z"/><path d="m77.957 114.451h2.199v-3.582h-2.199z"/><path d="m0 0c-.609 0-1.098-.5-1.098-1.098v-3.121h2.2v3.121c-.012.618-.5 1.098-1.102 1.098" transform="translate(79.0547 120.439)"/><path d="m77.957 109.099h2.199v-3.578h-2.199z"/><path d="m77.957 103.748h2.199v-3.578h-2.199z"/><path d="m77.957 98.4h2.199v-3.582h-2.199z"/><path d="m77.957 93.041h2.199v-3.582h-2.199z"/><path d="m81.965 114.451h2.199v-3.582h-2.199z"/><path d="m0 0c-.609 0-1.098-.5-1.098-1.098v-3.121h2.2v3.121c0 .618-.5 1.098-1.102 1.098" transform="translate(83.0742 120.439)"/><path d="m81.965 109.099h2.199v-3.578h-2.199z"/><path d="m81.965 103.748h2.199v-3.578h-2.199z"/><path d="m81.965 98.4h2.199v-3.582h-2.199z"/><path d="m81.965 93.041h2.199v-3.582h-2.199z"/><path d="m85.996 114.451h2.199v-3.582h-2.199z"/><path d="m0 0c-.621 0-1.102-.5-1.102-1.098v-3.121h2.2v3.121c0 .618-.477 1.098-1.098 1.098" transform="translate(87.0859 120.439)"/><path d="m85.996 109.099h2.199v-3.578h-2.199z"/><path d="m85.996 103.748h2.199v-3.578h-2.199z"/><path d="m85.996 98.4h2.199v-3.582h-2.199z"/><path d="m85.996 93.041h2.199v-3.582h-2.199z"/><path d="m90.004 114.451h2.203v-3.582h-2.203z"/><path d="m0 0c-.609 0-1.098-.5-1.098-1.098v-3.121h2.2v3.121c0 .618-.5 1.098-1.102 1.098" transform="translate(91.1133 120.439)"/><path d="m90.004 109.099h2.203v-3.578h-2.203z"/><path d="m90.004 103.748h2.203v-3.578h-2.203z"/><path d="m90.004 98.4h2.203v-3.582h-2.203z"/><path d="m90.004 93.041h2.203v-3.582h-2.203z"/><path d="m94.023 114.451h2.203v-3.582h-2.203z"/><path d="m0 0c-.609 0-1.102-.5-1.102-1.098v-3.121h2.204v3.121c0 .618-.493 1.098-1.102 1.098" transform="translate(95.125 120.439)"/><path d="m94.023 109.099h2.203v-3.578h-2.203z"/><path d="m94.023 103.748h2.203v-3.578h-2.203z"/><path d="m94.023 98.4h2.203v-3.582h-2.203z"/><path d="m94.023 93.041h2.203v-3.582h-2.203z"/><path d="m98.055 114.451h2.199v-3.582h-2.199z"/><path d="m0 0c-.621 0-1.102-.5-1.102-1.098v-3.121h2.2v3.121c-.008.618-.5 1.098-1.098 1.098" transform="translate(99.1563 120.439)"/><path d="m98.055 109.099h2.199v-3.578h-2.199z"/><path d="m98.055 103.748h2.199v-3.578h-2.199z"/><path d="m98.055 98.4h2.199v-3.582h-2.199z"/><path d="m98.055 93.041h2.199v-3.582h-2.199z"/><path d="m102.066 114.451h2.199v-3.582h-2.199z"/><path d="m0 0c-.609 0-1.098-.5-1.098-1.098v-3.121h2.2v3.121c.007.618-.493 1.098-1.102 1.098" transform="translate(103.1641 120.439)"/><path d="m102.066 109.099h2.199v-3.578h-2.199z"/><path d="m102.066 103.748h2.199v-3.578h-2.199z"/><path d="m102.066 98.4h2.199v-3.582h-2.199z"/><path d="m102.066 93.041h2.199v-3.582h-2.199z"/><path d="m106.086 114.451h2.199v-3.582h-2.199z"/><path d="m0 0c-.609 0-1.098-.5-1.098-1.098v-3.121h2.2v3.121c0 .618-.5 1.098-1.102 1.098" transform="translate(107.1836 120.439)"/><path d="m106.086 109.099h2.199v-3.578h-2.199z"/><path d="m106.086 103.748h2.199v-3.578h-2.199z"/><path d="m106.086 98.4h2.199v-3.582h-2.199z"/><path d="m106.086 93.041h2.199v-3.582h-2.199z"/><path d="m110.105 114.451h2.199v-3.582h-2.199z"/><path d="m0 0c0 .609-.5 1.098-1.102 1.098-.609 0-1.101-.5-1.101-1.098v-3.121h2.203z" transform="translate(112.3164 119.3413)"/><path d="m110.105 109.099h2.199v-3.578h-2.199z"/><path d="m114.125 114.451h2.199v-3.582h-2.199z"/><path d="m0 0c0 .609-.5 1.098-1.098 1.098-.613 0-1.101-.5-1.101-1.098v-3.121h2.199z" transform="translate(116.3242 119.3413)"/><path d="m114.125 109.099h2.199v-3.578h-2.199z"/><path d="m26.285 107.9h2.199v-3.582h-2.199z"/><path d="m26.285 102.951h2.199v-3.582h-2.199z"/><path d="m26.285 97.998h2.199v-3.578h-2.199z"/><path d="m26.285 93.041h2.199v-3.582h-2.199z"/><path d="m31.094 107.9h2.203v-3.582h-2.203z"/><path d="m31.094 102.951h2.203v-3.582h-2.203z"/><path d="m31.094 97.998h2.203v-3.578h-2.203z"/><path d="m31.094 93.041h2.203v-3.582h-2.203z"/><path d="m34.535 107.9h2.199v-3.582h-2.199z"/><path d="m34.535 102.951h2.199v-3.582h-2.199z"/><path d="m34.535 97.998h2.199v-3.578h-2.199z"/><path d="m34.535 93.041h2.199v-3.582h-2.199z"/><path d="m21.305 107.9h2.199v-3.582h-2.199z"/><path d="m17.836 107.9h2.199v-3.582h-2.199z"/><path d="m14.355 107.9h2.199v-3.582h-2.199z"/><path d="m10.887 107.9h2.199v-3.582h-2.199z"/><path d="m7.395 107.9h2.199v-3.582h-2.199z"/><path d="m21.305 102.951h2.199v-3.582h-2.199z"/><path d="m17.836 102.951h2.199v-3.582h-2.199z"/><path d="m14.355 102.951h2.199v-3.582h-2.199z"/><path d="m10.887 102.951h2.199v-3.582h-2.199z"/><path d="m7.395 102.951h2.199v-3.582h-2.199z"/><path d="m21.305 97.998h2.199v-3.578h-2.199z"/><path d="m17.836 97.998h2.199v-3.578h-2.199z"/><path d="m14.355 97.998h2.199v-3.578h-2.199z"/><path d="m10.887 97.998h2.199v-3.578h-2.199z"/><path d="m7.395 97.998h2.199v-3.578h-2.199z"/><path d="m21.305 93.041h2.199v-3.582h-2.199z"/><path d="m17.836 93.041h2.199v-3.582h-2.199z"/><path d="m14.355 93.041h2.199v-3.582h-2.199z"/><path d="m10.887 93.041h2.199v-3.582h-2.199z"/><path d="m7.395 93.041h2.199v-3.582h-2.199z"/><path d="m39.336 107.9h2.199v-3.582h-2.199z"/><path d="m39.336 102.951h2.199v-3.582h-2.199z"/><path d="m39.336 97.998h2.199v-3.578h-2.199z"/><path d="m39.336 93.041h2.199v-3.582h-2.199z"/><path d="m0 0h.012v3.59h-2.211v-3.59z" transform="translate(122.8438 127.1382)"/><path d="m0 0h.012v3.59h-2.211v-3.59z" transform="translate(122.8438 121.7905)"/><path d="m0 0h.012v3.59h-2.211v-3.59z" transform="translate(122.8438 116.439)"/><path d="m0 0h.012v3.59h-2.211v-3.59z" transform="translate(122.8438 111.0913)"/><path d="m0 0h.012v3.59h-2.211v-3.59z" transform="translate(122.8438 105.7397)"/><path d="m0 0 .008 3.59h-2.219v-3.59z" transform="translate(129.0156 127.1382)"/><path d="m0 0 .008 3.59h-2.219v-3.59z" transform="translate(129.0156 121.7905)"/><path d="m0 0 .008 3.59h-2.219v-3.59z" transform="translate(129.0156 116.439)"/><path d="m0 0 .008 3.59h-2.219v-3.59z" transform="translate(129.0156 111.0913)"/><path d="m0 0 .008 3.59h-2.219v-3.59z" transform="translate(129.0156 105.7397)"/><path d="m0 0 .012 3.578h-2.211v-3.578z" transform="translate(129.6641 152.7905)"/><path d="m0 0 .012 3.59h-2.211v-3.59z" transform="translate(129.6641 138.7007)"/><path d="m0 0 .012 3.59h-2.211v-3.59z" transform="translate(129.6641 148.0483)"/><path d="m125.426 161.49h3.48v-.27h-3.48zm1.488 3.269h.512v-2.871h-.512zm-.969-3.929h2.461v-.75h.379v.75h.512v1.039h-1.492v.211l.961.761v2.297l-.961-.758v.758h-1.27v-.758l-.969.758v-2.297s.969-.761.969-.75v-.211h-1.488v-1.039h.508v-.75h.379v.727h.011z"/><path d="m203.547 107.9h2.199v-3.582h-2.199z"/><path d="m207.023 107.9h2.203v-3.582h-2.203z"/><path d="m210.496 107.9h2.199v-3.582h-2.199z"/><path d="m213.996 107.9h2.199v-3.582h-2.199z"/><path d="m217.465 107.9h2.199v-3.582h-2.199z"/><path d="m203.547 102.951h2.199v-3.582h-2.199z"/><path d="m207.023 102.951h2.203v-3.582h-2.203z"/><path d="m210.496 102.951h2.199v-3.582h-2.199z"/><path d="m213.996 102.951h2.199v-3.582h-2.199z"/><path d="m217.465 102.951h2.199v-3.582h-2.199z"/><path d="m203.547 97.998h2.199v-3.578h-2.199z"/><path d="m194.637 106.291h2.199v-3.582h-2.199z"/><path d="m194.637 101.33h2.199v-3.582h-2.199z"/><path d="m194.637 96.388h2.199v-3.578h-2.199z"/><path d="m207.023 97.998h2.203v-3.578h-2.203z"/><path d="m210.496 97.998h2.199v-3.578h-2.199z"/><path d="m213.996 97.998h2.199v-3.578h-2.199z"/><path d="m217.465 97.998h2.199v-3.578h-2.199z"/><path d="m203.547 93.041h2.199v-3.582h-2.199z"/><path d="m207.023 93.041h2.203v-3.582h-2.203z"/><path d="m210.496 93.041h2.199v-3.582h-2.199z"/><path d="m213.996 93.041h2.199v-3.582h-2.199z"/><path d="m217.465 93.041h2.199v-3.582h-2.199z"/><path d="m183.836 114.451h2.199v-3.582h-2.199z"/><path d="m0 0c.621 0 1.102-.5 1.102-1.098v-3.121h-2.204v3.121c-.007.618.493 1.098 1.102 1.098" transform="translate(184.9453 120.439)"/><path d="m183.836 109.099h2.199v-3.578h-2.199z"/><path d="m183.836 103.748h2.199v-3.578h-2.199z"/><path d="m183.836 98.4h2.199v-3.582h-2.199z"/><path d="m183.836 93.041h2.199v-3.582h-2.199z"/><path d="m179.824 114.451h2.199v-3.582h-2.199z"/><path d="m0 0c.609 0 1.098-.5 1.098-1.098v-3.121h-2.2v3.121c0 .618.493 1.098 1.102 1.098" transform="translate(180.9258 120.439)"/><path d="m179.824 109.099h2.199v-3.578h-2.199z"/><path d="m179.824 103.748h2.199v-3.578h-2.199z"/><path d="m179.824 98.4h2.199v-3.582h-2.199z"/><path d="m179.824 93.041h2.199v-3.582h-2.199z"/><path d="m175.805 114.451h2.199v-3.582h-2.199z"/><path d="m0 0c.609 0 1.098-.5 1.098-1.098v-3.121h-2.2v3.121c0 .618.5 1.098 1.102 1.098" transform="translate(176.9062 120.439)"/><path d="m175.805 109.099h2.199v-3.578h-2.199z"/><path d="m175.805 103.748h2.199v-3.578h-2.199z"/><path d="m175.805 98.4h2.199v-3.582h-2.199z"/><path d="m175.805 93.041h2.199v-3.582h-2.199z"/><path d="m171.785 114.451h2.199v-3.582h-2.199z"/><path d="m0 0c.617 0 1.098-.5 1.098-1.098v-3.121h-2.2v3.121c0 .618.489 1.098 1.102 1.098" transform="translate(172.8867 120.439)"/><path d="m171.785 109.099h2.199v-3.578h-2.199z"/><path d="m171.785 103.748h2.199v-3.578h-2.199z"/><path d="m171.785 98.4h2.199v-3.582h-2.199z"/><path d="m171.785 93.041h2.199v-3.582h-2.199z"/><path d="m167.766 114.451h2.199v-3.582h-2.199z"/><path d="m0 0c.613 0 1.102-.5 1.102-1.098v-3.121h-2.2v3.121c0 .618.5 1.098 1.098 1.098" transform="translate(168.8633 120.439)"/><path d="m167.766 109.099h2.199v-3.578h-2.199z"/><path d="m167.766 103.748h2.199v-3.578h-2.199z"/><path d="m167.766 98.4h2.199v-3.582h-2.199z"/><path d="m167.766 93.041h2.199v-3.582h-2.199z"/><path d="m163.734 114.451h2.199v-3.582h-2.199z"/><path d="m0 0c.609 0 1.102-.5 1.102-1.098v-3.121h-2.204v3.121c-.019.618.481 1.098 1.102 1.098" transform="translate(164.8555 120.439)"/><path d="m163.734 109.099h2.199v-3.578h-2.199z"/><path d="m163.734 103.748h2.199v-3.578h-2.199z"/><path d="m163.734 98.4h2.199v-3.582h-2.199z"/><path d="m163.734 93.041h2.199v-3.582h-2.199z"/><path d="m159.727 114.451h2.199v-3.582h-2.199z"/><path d="m0 0c.609 0 1.102-.5 1.102-1.098v-3.121h-2.2v3.121c0 .618.5 1.098 1.098 1.098" transform="translate(160.8242 120.439)"/><path d="m159.727 109.099h2.199v-3.578h-2.199z"/><path d="m159.727 103.748h2.199v-3.578h-2.199z"/><path d="m159.727 98.4h2.199v-3.582h-2.199z"/><path d="m159.727 93.041h2.199v-3.582h-2.199z"/><path d="m155.707 114.451h2.199v-3.582h-2.199z"/><path d="m0 0c.609 0 1.098-.5 1.098-1.098v-3.121h-2.2v3.121c-.007.618.481 1.098 1.102 1.098" transform="translate(156.8164 120.439)"/><path d="m155.707 109.099h2.199v-3.578h-2.199z"/><path d="m155.707 103.748h2.199v-3.578h-2.199z"/><path d="m155.707 98.4h2.199v-3.582h-2.199z"/><path d="m155.707 93.041h2.199v-3.582h-2.199z"/><path d="m151.695 114.451h2.199v-3.582h-2.199z"/><path d="m0 0c0 .609.5 1.098 1.102 1.098.597 0 1.097-.5 1.097-1.098v-3.121h-2.199z" transform="translate(151.6953 119.3413)"/><path d="m151.695 109.099h2.199v-3.578h-2.199z"/><path d="m147.664 114.451h2.199v-3.582h-2.199z"/><path d="m0 0c0 .609.5 1.098 1.102 1.098.609 0 1.097-.5 1.097-1.098v-3.121h-2.199z" transform="translate(147.6641 119.3413)"/><path d="m147.664 109.099h2.199v-3.578h-2.199z"/><path d="m235.504 107.9h2.203v-3.582h-2.203z"/><path d="m235.504 102.951h2.203v-3.582h-2.203z"/><path d="m235.504 97.998h2.203v-3.578h-2.203z"/><path d="m235.504 93.041h2.203v-3.582h-2.203z"/><path d="m230.695 107.9h2.199v-3.582h-2.199z"/><path d="m230.695 102.951h2.199v-3.582h-2.199z"/><path d="m230.695 97.998h2.199v-3.578h-2.199z"/><path d="m230.695 93.041h2.199v-3.582h-2.199z"/><path d="m227.254 107.9h2.203v-3.582h-2.203z"/><path d="m227.254 102.951h2.203v-3.582h-2.203z"/><path d="m227.254 97.998h2.203v-3.578h-2.203z"/><path d="m227.254 93.041h2.203v-3.582h-2.203z"/><path d="m240.484 107.9h2.199v-3.582h-2.199z"/><path d="m243.965 107.9h2.199v-3.582h-2.199z"/><path d="m247.434 107.9h2.203v-3.582h-2.203z"/><path d="m250.914 107.9h2.199v-3.582h-2.199z"/><path d="m254.406 107.9h2.199v-3.582h-2.199z"/><path d="m240.484 102.951h2.199v-3.582h-2.199z"/><path d="m243.965 102.951h2.199v-3.582h-2.199z"/><path d="m247.434 102.951h2.203v-3.582h-2.203z"/><path d="m250.914 102.951h2.199v-3.582h-2.199z"/><path d="m254.406 102.951h2.199v-3.582h-2.199z"/><path d="m240.484 97.998h2.199v-3.578h-2.199z"/><path d="m243.965 97.998h2.199v-3.578h-2.199z"/><path d="m247.434 97.998h2.203v-3.578h-2.203z"/><path d="m250.914 97.998h2.199v-3.578h-2.199z"/><path d="m254.406 97.998h2.199v-3.578h-2.199z"/><path d="m240.484 93.041h2.199v-3.582h-2.199z"/><path d="m243.965 93.041h2.199v-3.582h-2.199z"/><path d="m247.434 93.041h2.203v-3.582h-2.203z"/><path d="m250.914 93.041h2.199v-3.582h-2.199z"/><path d="m254.406 93.041h2.199v-3.582h-2.199z"/><path d="m222.465 107.9h2.199v-3.582h-2.199z"/><path d="m222.465 102.951h2.199v-3.582h-2.199z"/><path d="m222.465 97.998h2.199v-3.578h-2.199z"/><path d="m222.465 93.041h2.199v-3.582h-2.199z"/><path d="m0 0h-.02v3.59h2.219v-3.59z" transform="translate(141.1445 127.1382)"/><path d="m0 0h-.02v3.59h2.219v-3.59z" transform="translate(141.1445 121.7905)"/><path d="m0 0h-.02v3.59h2.219v-3.59z" transform="translate(141.1445 116.439)"/><path d="m0 0h-.02v3.59h2.219v-3.59z" transform="translate(141.1445 111.0913)"/><path d="m0 0h-.02v3.59h2.219v-3.59z" transform="translate(141.1445 105.7397)"/><path d="m0 0h-2.199v-3.59h2.211v3.59z" transform="translate(133.0937 130.7397)"/><path d="m0 0h-2.199v-3.59h2.211v3.59z" transform="translate(133.0937 125.3804)"/><path d="m0 0h-2.199v-3.59h2.211v3.59z" transform="translate(133.0937 120.0405)"/><path d="m0 0h-2.199v-3.59h2.211v3.59z" transform="translate(133.0937 114.689)"/><path d="m0 0h-2.199v-3.59h2.211v3.59z" transform="translate(133.0937 109.3296)"/><path d="m0 0h-.02v3.59h2.211v-3.59z" transform="translate(134.9844 127.1382)"/><path d="m0 0h-.02v3.59h2.211v-3.59z" transform="translate(134.9844 121.7905)"/><path d="m0 0h-.02v3.59h2.211v-3.59z" transform="translate(134.9844 116.439)"/><path d="m0 0h-.02v3.59h2.211v-3.59z" transform="translate(134.9844 111.0913)"/><path d="m0 0h-.02v3.59h2.211v-3.59z" transform="translate(134.9844 105.7397)"/><path d="m142.137 99.669h-20.273v2.32h20.273zm.379 2.7h-21.031v-3.078h21.031z"/><path d="m0 0h-2.199v-3.582h2.211v3.582z" transform="translate(133.0937 156.3804)"/><path d="m134.324 156.369h2.211v-3.578h-2.211z"/><path d="m0 0h-2.199v-3.59h2.211v3.59z" transform="translate(133.0937 142.2905)"/><path d="m134.324 142.291h2.211v-3.59h-2.211z"/><path d="m0 0h-2.199v-3.59h2.211v3.59z" transform="translate(133.0937 151.6382)"/><path d="m134.324 151.638h2.211v-3.59h-2.211z"/><path d="m135.086 161.49h3.48v-.27h-3.48zm2 .39h-.512v2.867h.512zm.969-1.789h.379v.75h.511v1.028h-1.488v.211l.969.75v2.289l-.969-.758v.758h-1.273v-.758l-.969.758v-2.289l.969-.762v-.207h-1.489v-1.043h.512v-.75h.379v.75h2.461v-.727z"/><path d="m0 0v-.02l-.523-1.628 1.39 1.011 1.403-1.011-.543 1.628v.02l1.39 1.012h-1.707l-.543 1.64-.519-1.64h-1.731z" transform="translate(131.1367 190.5679)"/><path d="m0 0h-22.383v.687h-18.18v-.687h-22.308v.84l21.238-.02v1.008h20.602v-1.008l21.031.02zm-3.301-.391h2.59v-21.23h-2.59zm-19.09 0h18.711v-21.23h-18.711zm-4.761.7h4.391v-21.93h-4.391zm-8.309 0h7.93v-21.93h-7.93zm-4.73 0h4.352v-21.93h-4.352zm-19.161-.7h18.789v-21.23h-18.789zm-2.839 0h2.461v-21.23h-2.461zm62.191-21.609v-1.211h-63.859c.257.34.449.762.5 1.211zm0-3.172h-63.152l-.821 1.59h63.973zm-65.832 5.981c-1.348 0-2.449-1.079-2.481-2.43h-.757l-.039 20.16h6.546v-20.16h-.769c-.059 1.34-1.16 2.43-2.5 2.43m-1.969-4.02h-39.929v.922h-.563v.289h39.992c.059-.441.231-.859.5-1.211m-.582-1.961h-22.578c-2.91.93-7.191 1.43-8.859 1.59h32.277zm-20.949-1.508c.473-.269.652-.75.422-1.082-.231-.328-.813-.379-1.27-.117-.472.258-.66.75-.422 1.067.243.339.801.39 1.27.132m-15.238 1.508h-8.641v1.59h3.988c1.762-.27 3.403-.848 4.653-1.59m2.238-2.078h-6.848v1.688h5.207c.75-.52 1.321-1.098 1.641-1.688m.301-.961c.011-.199-.039-.379-.051-.578-.02-.172.012-.313.062-.481l-3.57-.011v1.652h3.438c.07-.183.101-.371.121-.582m-3.942-1.07h-47.199v1.652h47.199zm-47.57 0-3.566.011c.039.161.078.297.066.481-.019.199-.066.379-.047.578.02.199.047.391.117.59h3.43zm-1.617 3.73h5.199v-1.691h-6.851c.332.582.89 1.16 1.652 1.691m5.238 1.961h3.992v-1.59h-8.64c1.269.75 2.898 1.328 4.648 1.59m-41.41.379c.262.34.441.762.5 1.211h39.992v-.289h-.562v-.922zm23.172-1.961h-22.602l-.82 1.59h32.281c-1.679-.16-5.949-.66-8.859-1.59m-.793-2.699c-.469-.258-1.039-.211-1.27.121-.23.328-.047.809.422 1.078.469.262 1.039.211 1.27-.117.23-.332.051-.82-.422-1.082m-24.359 8.68c-1.34 0-2.438-1.079-2.481-2.43h-.769v20.16h6.55l-.039-20.16h-.761c-.059 1.34-1.149 2.43-2.5 2.43m-1.969-4.02h-63.852v1.211h63.352c.051-.441.23-.859.5-1.211m-.699-1.961h-63.153v1.59h63.981zm-59.852 3.551h-2.59v21.23h2.59zm19.082 0h-18.723v21.23h18.723zm4.77 0h-4.391v21.93h4.391zm8.308 0h-7.93v21.93h7.93zm4.719 0h-4.348v21.93h4.348zm19.172 0h-18.789v21.23h18.789zm2.84 0h-2.461v21.23h2.461zm-62.192 21.621v.84l21.031-.02v1.008h20.602v-1.008l21.238.02v-.84h-22.308v.687h-18.18v-.687zm73.363 9.539v-31.148h-3.921l.07 31.148zm-3.851 1.449h3.84v-.66h-3.84zm-2.238 2.172h48.769v-1.211h-46.902zm49.976-20.859h-9.52v.598h9.52zm-1.09 34.797h5.48v-.418h-5.48zm3.352 7.621h20.102v-.699h-20.102zm-1.031.789h22.172l-.711-.418h-20.75zm-.289.801h22.75v-.418h-22.75zm5.039.371h-4.207v.699h4.207zm-4.828 1.508h5.48v-.418h-5.48zm2.468 3.96h.512v-3.578h-.512zm2.43 7.071h12.531v-.66h-12.531zm-.418.371-.203.129h13.762l-.2-.129zm-.602.66h14.559v-.129h-14.559zm4.911 2.5h.421l.668-2.129h-.199c-.32.758-.89 2.129-.89 2.129m.75 1.43.199-.012-.481-1.129h-.41zm-.418 1.238h4.066l-.437-.758h-.122l.129.508h-.57l-.137-.508h-.41l.129.52h-1.23l.129-.52h-.411l-.136.508h-.571l.129-.508h-.121zm.929.84c.368-.02 1.868-.02 2.227 0 .363 0 .57-.129.75-.5h-3.727c.168.371.399.5.75.5m-.691 1.363h.309v-.32h-.309zm.488 0h.312v-.32h-.312zm.492 0h.309v-.32h-.309zm.539 0h.559v-.32h-.559zm.801 0h.32v-.32h-.32zm.469 0h.312v-.32h-.312zm.73-.683c-.031-.2-.257-.348-.257-.348h-2.942s-.23.16-.261.348zm-.23.683h.312v-.32h-.312zm.84-4.562h-.41l-.481 1.129.203.023zm-1.051-.289h.434l-.614-2.149h-.238c.09.52.43 2.149.418 2.149m-.719 0h.52l-.391-2.141h-.328zm.442 1.89.109.418h.371l-.113-.418zm.269-.48.41-1.129h-.429l-.352 1.129zm-.57 0 .328-1.129h-.5l-.199 1.129zm-1.238-1.141h-.5l.328 1.129h.351zm-.543-.269h.519l.203-2.141h-.332zm-.2 0c-.019 0 .321-1.629.422-2.141h-.242l-.609 2.141zm-.089 1.89-.11.418h.371l.11-.418zm.109-.48h.379l-.348-1.129h-.429zm.891.48-.09.418h.929l-.089-.418zm.679-1.89-.109-2.141h-.41l-.102 2.141zm-.629.289.141 1.121h.328l.141-1.121zm1.801-2.438h-.203l.672 2.129h.418c-.008 0-.567-1.371-.887-2.129m-7.191-12.051v9.61h11.441v-9.61h-.39v-1.179h.628v-.703h-11.91v.703h.629v1.179zm16.238-1.89h-4.207v.699h4.207zm.641 1.078h-5.48v.422h5.48zm-2.989 4.39h.508v-3.578h-.508zm5.219-15.468h-5.48v.418h5.48zm8.43-34.379h-9.52v.598h9.52zm-3.168-4.281h2.84v-.621h-2.84zm2.238-10.309h-1.621v9.309h1.621zm-2.238-.313h2.84v-.621h-2.84zm-26.02 45.45v-28.008h-5.41v-1.27h.469v-.312h-.801v29.601zm19.668-29.27h.469v1.27h-5.41v28h5.75v-29.59h-.797zm-19.289 1.27v28h13.961v-28.008zm18.91-5.848h-23.859v4.578h23.859zm-24.339 5.469h24.809v-.508h-24.809zm34.339-5.461h-9.609v.223h9.609zm-1.031.601h-8.59v2.309h8.59zm-12.34 36.711h4.211v-.672h-4.211zm-.379-.019v-.672h-2.082v7.992h3.27v-6.141h-1.817v-1.179zm-3.66 1.847h-2.211v-2.519h-1.211v2.519h-2.207v-2.519h-1.211v2.519h-2.199v-2.519h-1.191v7.992h11.441v-7.992h-1.191zm-13.89-.66v6.141h3.269v-7.988h-2.078v.668h.629v1.179zm-3.391-1.168h4.211v-.672h-4.211zm25.879-3.09h-26.227v.418h26.227zm-34.617-35.21h2.84v-.621h-2.84zm.597-1h1.621v-9.309h-1.621zm2.243-10.243h-2.84v.621h2.84zm-2.243 15.141h8.59v-2.309h-8.59zm8.59-2.91h-9.609v.223h9.609zm-8.969 2.902v-2.312h-1.019v-1.571h.398v-1h.621v-8.636h-34.539v33.179h42.301v-18.312h-8.691v-1.36h.929zm-.64-3.289h43.852v-.223h-43.852zm37.922-14.172h4.019v-1.691h-40.031v1.691zm-2.532 2.328h-2.84v.621h2.84zm-.609.934h-1.621v9.309h1.621zm-2.219 10.309h2.84v-.621h-2.84zm-5.211-11.243h-2.84v.621h2.84zm-.601.934h-1.617v9.309h1.617zm-2.231 10.309h2.84v-.621h-2.84zm-5.187-11.243h-2.852v.621h2.852zm-.61.934h-1.621v9.309h1.621zm-2.242 10.309h2.84v-.621h-2.84zm21.442-13.2h-31.98v1.59h31.98zm-26.633 1.957h-2.84v.621h2.84zm-.609.934h-1.617v9.309h1.617zm-2.219 10.309h2.84v-.621h-2.84zm26.968 23.55h42.301v-33.191h-34.551v8.641h.61v1h.41v1.57h-1.02v2.308h.93v1.36h-8.687v18.312zm42.704-.582h3.84v-.66h-3.84zm3.839-1.449.067-31.148h-3.918v31.148zm-46.543 3.621h48.77l-1.867-1.211h-46.91zm14.903-41.66c.219.211.597.359 1.019.359.688 0 1.239-.371 1.239-.832 0-.027-.008-.039-.008-.047-.043-.429-.582-.769-1.242-.769-.7 0-1.239.367-1.239.816 0 .172.09.321.231.473m-57.832-1.301c-.649 0-1.188.34-1.238.77 0 .011-.012.039-.012.051 0 .46.562.828 1.242.828.418 0 .797-.137 1.02-.36.14-.129.218-.3.218-.468.012-.45-.55-.821-1.23-.821m150.621 33.481s-.942.199-1.91.199h-9.328s-.621-.008-1.532.289c-.91.301-10.179 3.383-10.179 3.383s-9.27-3.09-10.18-3.383c-.91-.297-1.531-.289-1.531-.289h-9.328c-.961 0-1.911-.199-1.911-.199l-9.281-2.012v-.84h.328v-.879h-5.867l-.031 11.52v.031l2.351 1.539v1.07s-6.472 1.039-10.941 1.75-6.719.61-6.719.61h-31.64v7.191h.91l1.269.758v1.223h-2.562v.668h.633v1.179h-4.032v6.141h.68v1.07h.082l1.27.762v1.219h-.86v.699h.649v1.18h-2.481l1.34 1.629v2.292l-1.34-1.632v1.66h-1.269v-1.66l-1.328 1.632v-2.292l1.328-1.629h-1.699v9.609h.589v1.031h.09l.91.551v.871h-5.89c.039.109.078.219.109.289.18.43.371.879.563 1.309l.007.019c.051.121.11.242.161.36.121.25.109.461-.051.703-.25.379-.481.769-.731 1.207.141.23.293.48.461.722.18.27.172.458-.051.708-.128.132-.257.273-.417.453.468.457.468 1.007.371 1.66h-1.524l-.457 20.379 1.039.289-.101.269c.121.071.23.133.351.211l.18-.219.719.731-.219.18c.078.117.141.23.199.347l.27-.09.261 1-.289.051c.008.129.008.281 0 .41l.289.051-.269 1-.27-.109-.261-.09c.07-.141.128-.293.171-.453.36-1.27-.39-2.59-1.66-2.938-.211-.05-.422-.082-.632-.082-.208 0-.418.02-.629.082-1.27.348-2.012 1.66-1.661 2.938.04.16.11.301.172.453l-.261.09-.27.109-.281-1 .289-.051c-.008-.129-.008-.269 0-.41l-.289-.051.262-1 .277.09c.051-.117.133-.23.203-.347l-.223-.18.723-.731.18.219c.109-.078.218-.14.347-.211l-.109-.269 1.051-.289-.461-20.379h-1.52c-.109-.672-.109-1.223.36-1.66-.16-.172-.289-.321-.418-.453-.231-.239-.231-.45-.051-.708.168-.222.301-.472.461-.722-.262-.418-.481-.828-.731-1.207-.16-.242-.16-.453-.05-.703.05-.118.109-.227.16-.36l.011-.019c.2-.43.379-.871.559-1.309.02-.07.059-.18.109-.289h-5.918v-.851l.911-.551h.089v-1.039h.59v-9.61h-1.703l1.332 1.629v2.289l-1.332-1.629v1.668h-1.269v-1.668l-1.34 1.629v-2.289l1.34-1.629h-2.481v-1.179h.633v-.703h-.859v-1.219l1.269-.758h.078v-1.082h.68v-6.141h-4.02v-1.179h.629v-.668h-2.558v-1.223l1.269-.758h.91v-7.191h-31.601s-2.227.09-6.719-.621c-4.469-.707-10.937-1.75-10.937-1.75v-1.071l2.347-1.539v-.019l-.031-11.52h-5.867v.879h.328v.84l-9.277 2s-.942.203-1.911.203h-9.332s-.621-.023-1.531.289c-.91.301-10.179 3.379-10.179 3.379s-9.27-3.102-10.18-3.379c-.918-.301-1.528-.289-1.528-.289h-9.332c-.96 0-1.91-.203-1.91-.203l-9.281-2v-.84h.563v-1.219h.71v-21.23h-.742v-3.93h63.75l1.071 2.071.07.128c-.5.391-.809.981-.809 1.661 0 1.171.938 2.109 2.11 2.109 1.168 0 2.109-.949 2.109-2.109 0-.711-.359-1.348-.898-1.731l.019-.051 1.07-2.066h21.79c-.602-.25-1.25-.582-1.61-1.152-.293-.469-.332-1.129.09-1.539.367-.372.891-.461 1.391-.379.468.07 1.019.269 1.367.578.93.832 2.051 1.429 3.199 1.89 1.273.5 2.59.879 3.91 1.219 1.352.34 2.711.633 4.071.852.222.039.441.07.66.109.172.031.332.051.5.07h.019c.762.11 1.524.18 2.293.25-2.512-.761-8.711-2.929-7.722-5.48.011-.031.031-.051.042-.078.59-1.293 2.887-1.223 3.708-.422h55.48c.84-.82 3.121-.871 3.711.422.012.027.031.047.039.078.992 2.559-5.211 4.719-7.719 5.48.758-.07 1.52-.14 2.27-.25h.011c.168-.031.329-.05.5-.07.219-.039.45-.07.668-.109 1.372-.219 2.719-.512 4.071-.852 1.32-.328 2.64-.719 3.922-1.219 1.148-.449 2.269-1.058 3.199-1.89.347-.309.898-.508 1.367-.578.5-.082 1.023.019 1.391.379.41.41.382 1.058.089 1.539-.347.57-1 .902-1.609 1.152h21.789l1.07 2.066.02.051c-.539.383-.898 1.012-.898 1.731 0 1.171.941 2.109 2.109 2.109 1.172 0 2.109-.949 2.109-2.109 0-.668-.32-1.27-.808-1.661l.07-.128 1.07-2.071h63.75v3.93h-.711v21.219h.711v1.222h.551v.84z" transform="translate(261.5664 109.4702)"/><path d="m0 0 11.98-33.152h-70.64c1.64-3.161 2.992-5.75 4.422-8.469h-39.852c1.422 2.73 2.77 5.308 4.41 8.469h-70.64l11.98 33.152 6.481 2.91h1.359c-3.617-9.851-7.457-20.34-11.129-30.32h70.02c-1.461-2.93-2.77-5.563-4.231-8.492h23.332c-1.461 2.929-2.769 5.562-4.23 8.492h70.031c-3.672 9.98-7.523 20.469-11.141 30.32h1.36zm6.551-2.941 13.422-34.95h-69.883c1.742-3.441 3.312-6.539 5.019-9.929h-58.539c1.711 3.39 3.282 6.48 5.02 9.929h-69.879l13.43 34.95 5.199 2.339-12.039-33.32h70.511c-1.66-3.199-3-5.801-4.519-8.719h43.09c-1.524 2.93-2.863 5.52-4.524 8.719h70.512l-12.039 33.32zm-86.129 5.839 5.41-4.14 5.41 4.14 59.91.032 10.739-29.352h-70.258c1.457-2.91 2.789-5.531 4.207-8.34h-20.02c1.41 2.809 2.742 5.43 4.211 8.34h-70.261l10.75 29.352zm91.25-5.14.16.179c7.641 9 13.578 18.68 18.141 29.571l.136.34h-6.648l-.059-.141c-1.711-3.84-3.652-7.59-5.75-11.137-2.062-3.48-4.382-6.902-6.871-10.191l-8.769 7.121-.16-.203c-1.403-1.84-2.879-3.637-4.391-5.36-1.16-1.32-2.398-2.617-3.66-3.91h-16.918c8.519 6.61 15.219 14.16 20.797 23.453l.222.368h-7.211l-.082-.11c-1.609-2.441-3.316-4.758-5.097-6.898-1.782-2.153-3.672-4.223-5.641-6.141-1.969-1.91-4.09-3.75-6.301-5.469-2.199-1.703-4.558-3.343-7.039-4.89l-.648-.313h-35l-5.063-3.879-5.058 3.879h-34.992l-.649.313c-2.48 1.539-4.851 3.187-7.051 4.89-2.211 1.719-4.32 3.547-6.3 5.469-1.977 1.918-3.868 3.988-5.649 6.141-1.762 2.148-3.48 4.469-5.101 6.898l-.079.11h-7.211l.219-.368c5.582-9.273 12.293-16.832 20.813-23.453h-16.903c-1.257 1.27-2.5 2.571-3.66 3.91-1.519 1.723-2.988 3.532-4.386 5.36l-.161.203-8.769-7.121c-2.5 3.281-4.813 6.711-6.883 10.191-2.109 3.539-4.039 7.289-5.75 11.137l-.07.141h-6.649l.141-.34c4.57-10.899 10.508-20.571 18.141-29.571l.16-.179 8.769 7.121c1.02-1.191 2.09-2.359 3.18-3.512l-12.231-5.5-15.32-38.41h69.672c-1.832-3.328-3.441-6.277-5.191-9.457h73.878c-1.738 3.18-3.359 6.129-5.187 9.457h69.668l-15.32 38.41-12.231 5.5c1.09 1.153 2.16 2.321 3.18 3.512z" transform="translate(206.1641 53.6108)"/><path d="m0 0c-.789.711-1.488 1.539-2.109 2.391-.59-.852-1.289-1.661-2.078-2.391zm-4.309-7.43h3.969v2.691h-3.969zm-2.32 4.379h8.75v-6.847h-2.461v.757h-3.969v-.769h-2.32zm-3.871 5.082h-1.449v-5.941h1.449zm9.691 2.66c-.082-.16-.16-.359-.25-.539 1.18-1.773 3.188-3.5 5.301-4.422-.562-.371-1.301-1.078-1.711-1.57-.468.262-.929.551-1.371.86v-.77h-6.64v.68c-.469-.34-.95-.641-1.481-.93-.289.34-.848.859-1.359 1.223v-4.891h-3.66v-1.43h-2.18v10.879h5.832v-4.179c2.418 1.32 4.32 3.437 5.269 5.609z" transform="translate(100.6445 43.8687)"/><path d="m0 0v-1.941h-18.352v1.941h7.68v8.34h-6.598v2.008h16.129v-2.008h-6.781v-8.34z" transform="translate(141.3555 37.0405)"/><path d="m0 0c1.328-3.148 3.777-5.68 7.547-6.898-.598-.411-1.399-1.258-1.777-1.809-3.661 1.379-6 3.73-7.571 6.848-1.09-2.688-3.269-5.207-7.551-6.86-.378.539-1.089 1.219-1.8 1.629 4.629 1.641 6.539 4.332 7.332 7.102h-6.942v1.98h7.34c.199 1.52.18 2.988.199 4.301h2.629c-.019-1.32-.039-2.813-.25-4.301h7.934v-1.98h-7.09z" transform="translate(170.457 42.7476)"/></g></svg>